<svg version="1" xmlns="http://www.w3.org/2000/svg" width="850.667" height="850.667" viewBox="0 0 638.000000 638.000000"><path d="M313.2 85.3c-.6.7-.8 2.4-.5 3.7.5 2 .3 2.2-1.5 1.8-2.4-.7-4.8 1.5-3.7 3.2.4.7 1.8.9 3 .6 2.7-.7 4.2.9 2.6 2.8-.6.7-1.2 2.9-1.3 5-.3 3-.8 3.8-2.8 4.3-1.4.3-2.9.9-3.5 1.3-.5.4-2.1.8-3.5.8-4-.1-17.8 6.1-20 8.9-2.5 3.2-2.5 6.4-.1 13.1 2.6 6.9 5.1 18.2 5.1 22.5 0 2.7.5 3.6 2.6 4.6 3 1.3 2.8 2.7-.9 5.5l-2.7 2-4.5-4.7c-2.4-2.6-5-4.7-5.8-4.7-1.2 0-1-1.2.8-5.8 3.7-9.1 3.6-14.8-.1-18.6-2.5-2.4-3.3-2.6-11-2.6-6.1 0-8.4-.4-8.4-1.3 0-.6-.5-2.9-1.1-5-.7-2.6-1.6-3.7-2.9-3.7-1.7 0-3.3 2.5-2.9 4.6.1.5-.2 1.9-.6 3-.6 1.9-1.6 2.2-8.1 2.6-5.1.2-7.9.8-9 2-1.6 1.5-1.9 1.5-5.3-.7-4.2-2.9-21.6-6.7-26-5.9-3.8.8-15.6-1.8-25.1-5.5-4.1-1.6-7.8-2.7-8.2-2.5-1.1.7-1 4 .1 6.2 5.3 10.7 6.8 13.5 8.1 14.7 1.9 1.7 20.8 6.9 31.3 8.6l7.8 1.2 3.6 5.6c1.9 3.1 4.4 6.6 5.6 7.8l2 2.3h-2.5c-3.5 0-9.1 2.1-10.5 3.9-1.8 2.3-1.6 5.3.6 10.4 2 4.7 4.1 6.9 4.1 4.3 0-2.2 5.7-6.5 7.8-5.9 1.1.2 3.9 2.4 6.3 4.9l4.3 4.4-6 .1c-3.2 0-8 .1-10.6.2-3.2.1-5.2-.4-6.6-1.6-2.6-2.3-3.6-.7-1.5 2.2 3.2 4.6 8.3 5.3 18.8 2.5 1.6-.4 1.5-.2-.4.9l-2.3 1.4 2.8 2c1.6 1.1 4.5 2.6 6.4 3.3 1.9.8 5.5 2.7 8 4.4 2.5 1.7 6.7 3.8 9.5 4.7 4.7 1.5 5.1 1.9 6.5 6.5.9 3 2.9 6.4 5.1 8.6 2 2 4.9 6.3 6.4 9.5s3.1 6.6 3.6 7.6c1.3 2.4.5 3.4-3 4.2-3 .6-5.1 4.3-5.1 8.6 0 1.2-1.8 2.8-5.2 4.5-2.9 1.5-7.3 4.3-9.8 6.4-7.3 6.1-8.2 6.3-15.1 4.5-8.9-2.2-12.8-4.3-13.5-7.2-1.1-4.3 1.6-6.9 16.1-16 4.2-2.6 3.7-6-2.7-19.1-8.4-17.2-9.3-18.6-27.3-37.4-13-13.6-18.9-21-47.9-59.6-10.9-14.4-20.5-26.6-21.5-27.1-2.5-1.4-8.8 2.9-7.5 5.1.2.4 0 .9-.5 1.2-1.7 1.1-.2 11.5 2.5 18.4 6.2 15.3 25.4 46.5 39.1 63.4 3.6 4.4 6.2 8.2 5.9 8.5-.3.4-.7.4-.9.2-.1-.2-2.3-2.9-4.8-5.9-2.4-3-7.6-9.8-11.4-15-3.9-5.2-7.4-10-7.8-10.5-.4-.6-4.2-5.5-8.3-11-4.1-5.5-8-10.7-8.7-11.5-4.1-5.2-12.7-17.2-15.2-21.2-2.6-4.2-4.5-6-4.5-4.3 0 .7 4.8 8.1 15.9 25 12.1 18.5 22.4 31.7 34.1 44 3.8 4 9.1 10.7 7.5 9.5-13-9.6-30.7-27.9-49-50.5-12.8-16-15.4-18.5-18.5-18.5-2.3 0-3.2.8-5 4.5-2.6 5.4-2.8 11.5-.4 17.5.9 2.5 6.1 11 11.4 19 9.1 13.6 12 19.2 12 22.8 0 .9-6.5-5.1-14.5-13.2-8-8.2-14.5-14.4-14.5-14 0 1 3.9 5.4 14 16.1 10.7 11.2 17 19.2 17 21.4 0 2.5-1.2 1.9-14.3-7.3-5.3-3.8-11.3-7.6-13.2-8.4-3.2-1.3-3.6-1.3-5.5.6-2.5 2.5-2.7 9.7-.3 14.8 2.2 4.7 17 19.7 29.8 30.2 9.2 7.6 12.2 10.6 11.3 11.5-.4.5-25.9-15-27.9-16.9-.9-.9-2.4-1.6-3.5-1.6-1 0 3.1 3.1 9.3 6.9 9.2 5.7 19.5 12.4 21.2 13.8.2.1.2.5-.1.8-.3.4-5-1.4-10.4-3.8-13.2-5.9-14.9-6.2-17.4-3.7-4.1 4.1-1.5 11 7.3 19.5 7 6.7 15.9 14 22.3 18.4 4.1 2.7 6.4 5 6.8 6.7.4 1.5.5 2.9.2 3.1-.3.3-5.7-1.4-12.1-3.7-6.4-2.3-11.9-4-12.1-3.7-.2.2 2.6 1.8 6.3 3.5 3.8 1.7 9.4 4.3 12.6 5.7 5.3 2.5 8.2 5.7 7.1 7.7-.3.4-4.5.5-9.4.3-8-.4-9.3-.2-11 1.5-1.9 1.9-1.9 2.2-.5 5.8.9 2 2.8 5 4.3 6.5 2.8 3 14 8.7 17 8.7 2.3 0 5.2 3 5.2 5.4 0 1.5-.7 1.7-4.5 1.4-5.5-.6-5.1.7.6 1.5 2.2.3 4.3.8 4.6 1.1 1.3 1.3.8 7.3-.9 9.7-2.3 3-1.3 6.6 2.5 9.6 1.6 1.2 2.8 3.4 3.2 5.9.4 2.1 2.5 13.3 4.7 24.8 4.5 23.3 4.5 22.9-3.1 22.4l-4.3-.3-.4 3.7c-.1 2.1.1 4 .7 4.3.5.4.9 1.5.9 2.6 0 2.5.8 2.4 7-.7 4.1-2 5.4-2.3 6.6-1.4 1.9 1.6 1.8 3.3-.5 7.8-2.7 5.4-3.5 12.3-1.7 14.7.9 1.1 1.6 2.8 1.6 3.9 0 2.2 12.4 14.6 14.5 14.6.9 0 2-1.1 2.5-2.5.8-2.2 1.3-2.4 2.9-1.5 2.2 1.1 5.4-1.1 4.5-3.3-.6-1.7 5-7 10.3-9.7 2.4-1.2 9.3-3 16.3-4.1 6.6-1 12.5-2 13.1-2.2.6-.1 1.2 2.4 1.5 6.3.5 7.3 3.2 13.8 6.6 15.9 1.2.8 5.4 1.6 9.3 1.9l7 .5-5 1.3c-2.7.8-6 1.4-7.2 1.4-1.3 0-2.3.5-2.3 1 0 .6 1.6.8 3.8.5 2-.2 6.1-.7 9-1 2.9-.3 7.8-1.7 10.8-3 3-1.3 5.3-2.1 5-1.6-.3.4-4.5 2.5-9.3 4.6-24.5 10.7-35.4 20.9-35.5 33.1 0 6.7 5.4 15.4 10.9 17.5 6.6 2.5 14.5-.8 17.7-7.4 2-4.3 2-6 .1-9.6l-1.4-2.8 4.2-1.2c4.6-1.4 10.5-4.9 15.2-9 1.9-1.7 2.4-1.9 1.5-.6-.8 1.1-1.7 2.2-2 2.5-4 4-9.6 11.7-8.4 11.7 2.9 0 18.4-17.1 18.4-20.3 0-.8.4-1.4.8-1.4.5 0 1.4-1 2.1-2.3 1-1.9 1.1-1.7.7 1.8-.7 5.5-5.4 14.5-12.7 24.5-13.1 18.1-16.5 31.8-10.6 43.5 2.2 4.5 3.5 5.6 9.1 8.6 4.8 2.6 12.4 2.2 16.4-.8 3.9-2.9 7.2-8.2 7.2-11.6 0-4-3.4-9.3-7-10.9-1.7-.7-2.9-1.5-2.8-1.8.2-.3 4-8 8.6-17.2 4.6-9.3 8.5-16.8 8.8-16.8.2 0-1 3.7-2.7 8.3-1.7 4.5-3.4 9.3-3.8 10.7-.5 1.4-1.8 4.5-3 6.9-1.2 2.3-2.1 5-1.9 5.9.5 2.4 7.7-14.1 10.9-24.8l2.9-9.5-.5 7c-.7 9.8-1.6 18.5-2.1 21.5-.3 1.4-.7 7.5-1.1 13.6-.5 10.2-.4 11.6 1.6 15.8 2.6 5.3 9.9 12.1 13.8 12.9 5.4 1 11.7-3.4 15.6-10.8 2.9-5.6 2.8-13.7-.3-31.5-.5-3-1.2-7.1-1.5-9-1-5.7-1.4-18-.6-18 .4 0 1.3 3.5 1.9 7.7.7 4.2 1.8 8.8 2.6 10.2.7 1.4 2.8 5.4 4.5 8.9 1.8 3.5 3.5 6.1 3.8 5.9.2-.3-2.1-7.3-5.1-15.7-3.1-8.3-5.6-15.6-5.6-16.2 0-.7 2.4 3.5 5.3 9.3 2.9 5.7 7.2 13.3 9.5 16.9l4.3 6.5-2.3 1.8c-7.3 5.7-9.2 8.8-8.2 14 1.3 7.8 7.2 12 15.5 11.4 6.7-.6 10.1-2.2 15.2-7.3s6.4-9.8 5-18c-1.4-8-4.8-14.9-15.5-31.1-7.9-11.8-12.5-20.9-11.4-22 .2-.3 1.6 1.2 2.9 3.4 4.1 6.4 8.1 10.9 14.3 16.2 8.7 7.5 8.8 6.2.2-2.7-12-12.2-18.4-20.6-8.8-11.6 6.7 6.2 11.4 9.1 18.5 11.4 5.6 1.8 6 2.3 4.2 6.8-2.1 5.1-.8 10.1 3.4 13.6 4.1 3.4 7.2 4.1 12.2 2.6 7.9-2.4 12.8-10.3 12-19.6-.9-11.3-7.8-18.6-26.3-27.8-7.1-3.5-13.2-6.1-13.5-5.8-.3.4-.3-.1 0-1 .5-1.3 2.7-1.7 12-1.9 9.6-.4 11.8-.7 14.2-2.5 3.3-2.5 5-7 5.5-15 .2-3.3.8-5.9 1.4-5.8 1.8.1 8.9 1.6 10.4 2.2.8.3 2.2.6 3.2.7 9.4 1.1 13.4 2.2 20.8 5.8 9 4.4 11.5 4.8 24 3.3 3-.3 7.5-.8 10-.9 7.3-.4 14-5.3 14-10.2 0-.8 1.3-3.3 2.9-5.5 3.4-4.8 5.5-12.6 4.8-18.1-.6-4.8-4.1-12.2-7-14.9-5.3-4.9-8.4-7.1-10.6-7.7-2.2-.5-2.3-.9-1.7-5.6 1.1-7.6 1.9-8.7 6.1-7.7 2.6.6 3.9.4 5-.7 2.3-2.3.2-4.9-4.6-5.7l-4.1-.7.5-4c.4-3.6.2-4.1-2-5-3.3-1.2-4.9.1-5.7 4.7-.7 3.5-.8 3.5-5.4 3.2-4.4-.3-4.7-.1-4.7 2.1 0 2 .8 2.6 4 3.6 3.7 1 4 1.4 3.8 4.4-.3 7-1.3 10.1-3.3 10.1-4.9 0-13.2 4.4-17.9 9.6-6.6 7.2-8.4 15.2-5.9 26.4.6 2.8-21.9 1.6-33.7-1.8-2.4-.7-3.1-1.5-3.3-4-.3-3.1 1-4.3 2.3-2.2.5.8 1.1.8 1.9.1.7-.6 3.5-1.3 6.2-1.6 7.8-.8 8-1.5 8.3-21.3l.1-7.2h5.5c5.6 0 12.3-2.1 13.6-4.2 1.1-1.7-1.2-5.5-7.4-12.3-3.1-3.3-5.4-6.1-5.2-6.3.1-.1 4.8 1.3 10.4 3.2 5.5 1.9 10.1 3.2 10.1 2.7 0-.4-3-1.7-6.7-2.9-3.8-1.2-8.6-3.1-10.8-4.1-3.2-1.6-3.6-2-1.7-2 1.2-.1 8.4-.3 16-.5 15.5-.5 19.8-.9 27.7-3 10.1-2.6 13.3-6.5 9.2-11.2-2.5-2.7-11.3-4.8-25.7-6-12.4-1.1-10.2-1.6 11.5-2.8 11.6-.7 28.5-3.6 28.5-4.9 0-.5-1.7-.6-3.7-.3-2.1.4-6 .9-8.8 1.2-2.7.2-6.1.6-7.5.9-1.4.2-5.6.6-9.5.9l-7 .5 6.5-1.4c22.3-5.1 40.6-13.9 44.5-21.6 2-3.8 1.2-7.7-1.8-8.8-2.5-1-13-.6-23.2.9s-19.7 1.9-22 .9c-2-.7-2-.8.1-.8 4.6-.2 28.4-7.4 35.4-10.8 10.2-4.9 22-11.6 22-12.5 0-.4-2.4.3-5.2 1.7-2.9 1.4-12.9 5.5-22.3 9.1-9.3 3.6-19.9 7.7-23.3 9.1-6.8 2.6-10.1 2.4-3.7-.3 39.1-16.3 68.6-43 59.6-53.8-1.8-2.2-2.8-1.8-20.6 6.9-15.4 7.6-30.4 14-31.1 13.2-.2-.2.8-.9 2.4-1.6 1.5-.8 3.4-1.7 4.2-2.2.8-.5 2.4-1.3 3.6-1.8 5.5-2.4 43.6-27.9 44.9-30.1 1.3-2.1 2.8-2.9-30.2 17-23.1 14-23.8 14.4-23.3 13.8.3-.4 4.8-3.4 10-6.8 8.5-5.6 22.7-15.6 24-17 .3-.3 2.7-2.3 5.5-4.5 6.5-5.2 14.4-13 17.9-17.7 2.8-3.8 5.3-11.5 5-15.6-.1-1.2-.2-3.1-.3-4.1-.2-3-3.5-3.4-8.8-1.1-4.7 2-9.4 5.4-29.2 20.8-8.8 6.9-21.7 15.9-25.1 17.6-.8.4 1.4-1.9 5-5.1 9.8-8.7 30.4-29.7 30.2-30.6-.1-.5.2-.6.6-.3.5.3 1.8-.4 2.8-1.7 1.9-2.1 1.9-2.1-.1-.7-1.1.8-.7-.1 1-2 4.6-5.4 4.9-5.6 4-4-.5.9-.4 1.2.1.7s.9-1.2.9-1.6c0-.4 2.5-4 5.6-8.1 5.8-7.8 12.9-19.2 12.9-20.6 0-.5-1.5.9-3.2 3.1-5.1 6.1-34 39-36.6 41.5-.8.8.9-1.7 3.9-5.7 11.6-15.4 19.9-28.5 24.9-38.8 4.2-8.8 4.7-17.7 1.4-22.2-1.2-1.5-2.9-3-3.8-3.1-2-.4-8.6 2.5-8.6 3.8 0 .5-.8 1.7-1.8 2.7-1 1-6 7.4-11.2 14.3-16.8 22.5-33.7 40.7-44.5 48l-5 3.3 2.6-2.9c11.7-13.3 16.4-19 21.8-26.4 3.3-4.7 6.5-9 6.9-9.5 6.9-9.1 26.2-43.5 24.4-43.5-.4 0-4 4.8-8 10.7-4 6-10.3 15.1-13.9 20.3-3.6 5.2-9.7 14.2-13.6 20-3.9 5.8-7.4 10.7-7.7 11-.3.3-2.7 3.8-5.5 7.8-2.7 4.1-5.3 7.6-5.8 7.9-.5.3 2.9-5 7.6-11.8 27.5-40.2 39.8-69.4 33.4-79.2-2.9-4.4-5.5-4.1-10.5 1.1-4.3 4.5-17.8 23.3-32.5 45.2-14.9 22.3-18.7 27-36.6 45.5-9.5 9.9-12.3 13.4-15.5 20-2.1 4.4-4.2 8.7-4.7 9.5-5 8.3-6.6 16.2-4 19.3.7.9 3.6 2.7 6.4 4 8.6 4 13.5 10.6 11 14.6-2.6 4.2-14.8 8.2-20.5 6.8-1.3-.4-3.6-1.8-5.3-3.3-3-2.7-10.3-7.5-16-10.5-2.1-1.1-3.5-3.1-4.8-6.7-1.4-3.6-2.7-5.4-4.8-6.5-2.6-1.2-2.8-1.6-1.4-2.7.8-.7 1.5-1.6 1.5-2.1 0-1.6 9-14.9 10-14.9 1.2 0 2.5-2.8 4-8.6.9-3.8 1.4-4.2 4.8-4.8 2-.3 5.7-2 8.2-3.6 2.5-1.7 7.2-4.4 10.5-5.9s6.7-3.6 7.5-4.6c1.4-1.7 1.2-1.8-4.8-1.3-4.2.3-5.7.1-4.6-.5 1.5-.9 6.9-.6 17 .9 3.4.5 4.5.2 7.2-2.1 1.8-1.5 3.2-3.6 3.2-4.7 0-1.9 0-1.9-2.7.1-2.3 1.9-3.6 2.1-12.1 1.6-5.2-.2-9.6-.6-9.9-.8-.2-.2 1.7-2.3 4.2-4.6 5.6-5.2 8.9-5.3 12-.4 1.1 1.8 2.3 3.2 2.6 3.3.9 0 4.9-9.5 4.9-11.7 0-3.6-2.9-6.1-8.4-7.4l-5.4-1.2 3.2-4.2c1.7-2.3 3.8-5.6 4.7-7.2 1.5-2.8 2.3-3.1 11-4.6 9.5-1.6 23.2-4.9 28.1-6.8 2-.8 3.8-3.3 6.8-9.3 5.6-11.6 5.4-14.7-.9-12-10.2 4.4-24.8 7.9-28.7 7-3.4-.9-22.4 3.2-25.6 5.6-2.5 1.7-2.9 1.8-5.1.3-2.1-1.3-6.3-2.1-13.7-2.4-1.6-.1-2.9-1-3.7-2.6-.6-1.4-.7-2.5-.2-2.5 1.3 0 1.1-1.2-.5-3.3-1.2-1.5-1.8-1.7-3.6-.7-1.1.6-2 1.9-1.9 2.8 0 .9-.2 2.7-.6 3.9-.7 2.1-1.4 2.3-7.7 2.3-8.1 0-12 1.7-13.8 6-1.6 3.8-.7 10.6 2 16 2.4 4.7 2.4 5 .5 5-.9 0-3.7 2-6.4 4.5l-4.7 4.4-2.7-2.5c-3.2-2.9-3.4-4-.9-4.6 1.3-.4 2.1-2.3 3.1-7.4.7-3.8 2.6-10.2 4.2-14.2 1.7-4.4 2.9-9.2 2.9-11.9 0-4-.5-5.1-3.8-8.2-3.7-3.5-13.7-7.8-19.9-8.7-8.6-1.1-8.9-1.3-10.1-6.6-1.6-6.6-1.5-7 .7-6.3 1 .3 2.6.3 3.5-.1 1.5-.6 1.6-.8.1-2.4-1-1.1-2.4-1.6-3.7-1.2-1.9.5-2 .2-1.4-2.3 1-3.8-1.9-6-4.2-3.2zm13.3 79.8c1.5 2.3 4.5 6.1 6.7 8.5l3.9 4.2-3.6 7.2c-5.2 10.2-11.1 28.5-13.5 42-3.4 18-3.1 17.2-4.5 11.5-.7-2.8-2-8.6-3-13-3.2-14.3-8.2-29.1-12.8-38l-4.6-8.6 4.2-5.2c2.3-2.9 5.1-6.9 6.2-9l2-3.7h16.2l2.8 4.1zm-86.5 25c.9.6.4.7-1.5.2-1.6-.3-3.5-.6-4.2-.6-.7 0-1.3-.4-1.3-.9 0-.9 4.6 0 7 1.3zm-85.8 24.4c5.8 6.3 12.2 13.9 9.8 11.7-1.9-1.7-3.3-1.5-2.6.4.3.9-1.6 0-4.6-2.2-8.4-6-17.8-13.7-17.8-14.5 0-.4-.3-1.6-.6-2.6-.6-1.6-.5-1.6.7-.2.8.9 4.8 4.4 8.9 7.8 4.1 3.4 8.5 7.2 9.8 8.3 1.2 1.1 2.5 1.9 2.7 1.6.3-.2-3.8-4.7-9.1-9.8-12.5-12.3-15.4-15.7-15.4-17.9 0-1.9 3.4 1.3 18.2 17.4zm10.3 42.7c1.1 1-.7.3-3.9-1.6-3.3-2-6.3-3.6-6.8-3.6-.4 0-.8-.5-.8-1.1 0-1.3 8.5 3.4 11.5 6.3zM473 253c-1.4 1.1-2.9 2-3.5 2-.5 0 .4-.9 2-2 3.8-2.5 4.8-2.5 1.5 0zm-304.5 39c.8 1.3-1.5 1.3-3.5 0-1.2-.8-1.1-1 .7-1 1.2 0 2.5.4 2.8 1zm1.1 3.3c.4.4-.5.7-1.9.7-1.5 0-2.7-.4-2.7-1 0-1.1 3.5-.8 4.6.3zm8.4 29.3c8.8 1.8 10.4 2.9 6.6 4.4-3.5 1.3-13.6 1.3-13.6 0 0-.6 3.2-1 7.7-1 8.9 0 9.5-.8.8-1.1-6.6-.2-10.5-1.3-10.5-2.9 0-1.3.1-1.3 9 .6zm191.2 13.7c.8 2.3 2.5 6.6 3.6 9.4 2.1 5.1 2.1 5.3.3 6.3-2.6 1.3-12.4 2.1-14 1-1.1-.6-1.5-3.7-1.5-12.3-.1-9.9.2-11.8 1.8-13.5l1.8-2.1 3.3 3.5c1.8 1.9 3.9 5.3 4.7 7.7zm-91.7 3.7c.4 3 .8 6.5 1 7.8.6 4-2.7 6.2-9.2 6.2-8.1 0-8.6-.5-6.8-6.7 2.4-8 5.4-14.1 8.3-16.8l2.7-2.5 1.7 3.3c.9 1.7 2 5.7 2.3 8.7zm-71.6 9.5c.2.2-3.7 2.3-8.5 4.6-9.7 4.6-9.9 4.7-9.3 5.3.2.2 4.4-1.6 9.3-4s9.2-4.2 9.4-3.9c.5.4-.6 1.9-7.5 10.4-4.8 5.9-5.3 8.8-2 11.6 2.4 2.1 9.8 2.7 15 1.1l2.7-.8V388c0 14 .5 14.9 7.7 15 2.3 0 4.5.5 4.8 1.1.4.6 1.4.7 2.4.3 2.5-1.1 12-2.1 11.5-1.2-.3.4-2.3.8-4.5.8h-4.1l.4 3.7c.3 3.7.3 3.7-4.2 4.5-2.5.4-6.3 1-8.5 1.2-2.2.3-6.5.8-9.5 1.2-9.3 1.1-10.7.7-16.4-5-2.5-2.5-5.3-4.6-6.2-4.6-2.5 0-1-2.5 1.7-2.8 2.5-.3 2.5-.4 1.6-6.2-1-6.3-1.6-7-3.7-4.5-.7.8-1.6 1.5-2 1.5-.9 0-2-4.7-2.5-11.2-.4-4.1-5.5-26-7-30-.5-1.2 1.6-1.4 14.2-1 8.1.2 15 .5 15.2.7zM387.4 419c2 0 5.5 3 5 4.3-.7 1.9-10.8 7.1-12.5 6.5-1.2-.5-1.6-5.8-1-14.5.1-.8 1.5-.3 3.7 1.2 2 1.4 4.2 2.5 4.8 2.5zm-130 2.7c-.2 5.6.8 7.9 3.7 8.8 2 .7 2 .7.2 1.9-3.2 2.2-7.1 2.7-10.5 1.3-4.2-1.8-9.8-6.5-9.8-8.2 0-.8 2.9-2.8 6.4-4.4 3.5-1.7 6.9-3.8 7.6-4.6 1.8-2.2 2.6-.5 2.4 5.2z"/><path d="M497.5 320c-.8 1.3 1.5 1.3 3.5 0 1.2-.8 1.1-1-.7-1-1.2 0-2.5.4-2.8 1zM372 449.1c0 .6 10.9 2.6 19 3.4l4.5.4-4-.9c-8.8-2-19.5-3.6-19.5-2.9z"/></svg>